HIERARCHY
ROOT Character1_Hips
{
  OFFSET -0.139833 14.4357 -0.25367
  CHANNELS 6 Xposition Yposition Zposition Zrotation Xrotation Yrotation
  JOINT Character1_LeftUpLeg
  {
    OFFSET 1.33984 -0.942852 0
    CHANNELS 6 Xposition Yposition Zposition Zrotation Xrotation Yrotation
    JOINT Character1_LeftLeg
    {
      OFFSET 1.03111 -5.48941 0.514161
      CHANNELS 6 Xposition Yposition Zposition Zrotation Xrotation Yrotation
      JOINT Character1_LeftFoot
      {
        OFFSET 0.584472 -7.37543 -1.61389
        CHANNELS 6 Xposition Yposition Zposition Zrotation Xrotation Yrotation
        JOINT Character1_LeftToeBase
        {
          OFFSET 0.308452 -0.815753 3.43202
          CHANNELS 6 Xposition Yposition Zposition Zrotation Xrotation Yrotation
          End Site
          {
            OFFSET 0 0 0
          }
        }
      }
    }
  }
  JOINT Character1_RightUpLeg
  {
    OFFSET -1.33984 -0.942851 0
    CHANNELS 6 Xposition Yposition Zposition Zrotation Xrotation Yrotation
    JOINT Character1_RightLeg
    {
      OFFSET -1.03111 -5.48941 0.514163
      CHANNELS 6 Xposition Yposition Zposition Zrotation Xrotation Yrotation
      JOINT Character1_RightFoot
      {
        OFFSET -0.584473 -7.37543 -1.61389
        CHANNELS 6 Xposition Yposition Zposition Zrotation Xrotation Yrotation
        JOINT Character1_RightToeBase
        {
          OFFSET -0.308451 -0.815752 3.43202
          CHANNELS 6 Xposition Yposition Zposition Zrotation Xrotation Yrotation
          End Site
          {
            OFFSET 0 0 0
          }
        }
      }
    }
  }
  JOINT Character1_Spine
  {
    OFFSET 0 1.05263 0
    CHANNELS 6 Xposition Yposition Zposition Zrotation Xrotation Yrotation
    JOINT Character1_Spine1
    {
      OFFSET 0 2.01813 0
      CHANNELS 6 Xposition Yposition Zposition Zrotation Xrotation Yrotation
      JOINT Character1_Spine2
      {
        OFFSET 0 2.01813 0
        CHANNELS 6 Xposition Yposition Zposition Zrotation Xrotation Yrotation
        JOINT Character1_LeftShoulder
        {
          OFFSET 1.05262 2.257 0
          CHANNELS 6 Xposition Yposition Zposition Zrotation Xrotation Yrotation
          JOINT Character1_LeftArm
          {
            OFFSET 1.59242 -0.163555 -0.172858
            CHANNELS 6 Xposition Yposition Zposition Zrotation Xrotation Yrotation
            JOINT Character1_LeftForeArm
            {
              OFFSET 4.24536 -1.87801 -0.325393
              CHANNELS 6 Xposition Yposition Zposition Zrotation Xrotation Yrotation
              JOINT Character1_LeftHand
              {
                OFFSET 2.98615 -1.30581 0.326132
                CHANNELS 6 Xposition Yposition Zposition Zrotation Xrotation Yrotation
                JOINT Character1_LeftHandThumb1
                {
                  OFFSET 0.707166 -0.296377 0.777354
                  CHANNELS 6 Xposition Yposition Zposition Zrotation Xrotation Yrotation
                  JOINT Character1_LeftHandThumb2
                  {
                    OFFSET 0.248522 -0.159516 0.331579
                    CHANNELS 6 Xposition Yposition Zposition Zrotation Xrotation Yrotation
                    JOINT Character1_LeftHandThumb3
                    {
                      OFFSET 0.259195 -0.254061 0.227961
                      CHANNELS 6 Xposition Yposition Zposition Zrotation Xrotation Yrotation
                      JOINT Character1_LeftHandThumb4
                      {
                        OFFSET 0.226666 -0.258213 0.206783
                        CHANNELS 6 Xposition Yposition Zposition Zrotation Xrotation Yrotation
                        End Site
                        {
                          OFFSET 0 0 0
                        }
                      }
                    }
                  }
                }
                JOINT Character1_LeftHandIndex1
                {
                  OFFSET 1.48444 -0.354188 0.611987
                  CHANNELS 6 Xposition Yposition Zposition Zrotation Xrotation Yrotation
                  JOINT Character1_LeftHandIndex2
                  {
                    OFFSET 0.504725 -0.451988 0.0493912
                    CHANNELS 6 Xposition Yposition Zposition Zrotation Xrotation Yrotation
                    JOINT Character1_LeftHandIndex3
                    {
                      OFFSET 0.296442 -0.265513 0.0299125
                      CHANNELS 6 Xposition Yposition Zposition Zrotation Xrotation Yrotation
                      JOINT Character1_LeftHandIndex4
                      {
                        OFFSET 0.197651 -0.217277 0.0208597
                        CHANNELS 6 Xposition Yposition Zposition Zrotation Xrotation Yrotation
                        End Site
                        {
                          OFFSET 0 0 0
                        }
                      }
                    }
                  }
                }
                JOINT Character1_LeftHandMiddle1
                {
                  OFFSET 1.48537 -0.317032 0.212679
                  CHANNELS 6 Xposition Yposition Zposition Zrotation Xrotation Yrotation
                  JOINT Character1_LeftHandMiddle2
                  {
                    OFFSET 0.672059 -0.620935 0.0176346
                    CHANNELS 6 Xposition Yposition Zposition Zrotation Xrotation Yrotation
                    JOINT Character1_LeftHandMiddle3
                    {
                      OFFSET 0.264032 -0.321119 0.00884254
                      CHANNELS 6 Xposition Yposition Zposition Zrotation Xrotation Yrotation
                      JOINT Character1_LeftHandMiddle4
                      {
                        OFFSET 0.180854 -0.241264 0.00658421
                        CHANNELS 6 Xposition Yposition Zposition Zrotation Xrotation Yrotation
                        End Site
                        {
                          OFFSET 0 0 0
                        }
                      }
                    }
                  }
                }
                JOINT Character1_LeftHandRing1
                {
                  OFFSET 1.48599 -0.345214 -0.172738
                  CHANNELS 6 Xposition Yposition Zposition Zrotation Xrotation Yrotation
                  JOINT Character1_LeftHandRing2
                  {
                    OFFSET 0.522197 -0.611355 0.0123873
                    CHANNELS 6 Xposition Yposition Zposition Zrotation Xrotation Yrotation
                    JOINT Character1_LeftHandRing3
                    {
                      OFFSET 0.273491 -0.359548 0.00739139
                      CHANNELS 6 Xposition Yposition Zposition Zrotation Xrotation Yrotation
                      JOINT Character1_LeftHandRing4
                      {
                        OFFSET 0.175076 -0.230164 0.00473119
                        CHANNELS 6 Xposition Yposition Zposition Zrotation Xrotation Yrotation
                        End Site
                        {
                          OFFSET 0 0 0
                        }
                      }
                    }
                  }
                }
                JOINT Character1_LeftHandPinky1
                {
                  OFFSET 1.45006 -0.450851 -0.482263
                  CHANNELS 6 Xposition Yposition Zposition Zrotation Xrotation Yrotation
                  JOINT Character1_LeftHandPinky2
                  {
                    OFFSET 0.289756 -0.353117 -0.0298237
                    CHANNELS 6 Xposition Yposition Zposition Zrotation Xrotation Yrotation
                    JOINT Character1_LeftHandPinky3
                    {
                      OFFSET 0.271225 -0.36969 -0.028032
                      CHANNELS 6 Xposition Yposition Zposition Zrotation Xrotation Yrotation
                      JOINT Character1_LeftHandPinky4
                      {
                        OFFSET 0.192972 -0.263027 -0.0199441
                        CHANNELS 6 Xposition Yposition Zposition Zrotation Xrotation Yrotation
                        End Site
                        {
                          OFFSET 0 0 0
                        }
                      }
                    }
                  }
                }
              }
            }
          }
        }
        JOINT Character1_RightShoulder
        {
          OFFSET -1.05263 2.25701 0
          CHANNELS 6 Xposition Yposition Zposition Zrotation Xrotation Yrotation
          JOINT Character1_RightArm
          {
            OFFSET -1.59242 -0.163552 -0.172859
            CHANNELS 6 Xposition Yposition Zposition Zrotation Xrotation Yrotation
            JOINT Character1_RightForeArm
            {
              OFFSET -4.24538 -1.87799 -0.325335
              CHANNELS 6 Xposition Yposition Zposition Zrotation Xrotation Yrotation
              JOINT Character1_RightHand
              {
                OFFSET -2.98616 -1.3058 0.326132
                CHANNELS 6 Xposition Yposition Zposition Zrotation Xrotation Yrotation
                JOINT Character1_RightHandThumb1
                {
                  OFFSET -0.707167 -0.296375 0.777354
                  CHANNELS 6 Xposition Yposition Zposition Zrotation Xrotation Yrotation
                  JOINT Character1_RightHandThumb2
                  {
                    OFFSET -0.248522 -0.159517 0.33158
                    CHANNELS 6 Xposition Yposition Zposition Zrotation Xrotation Yrotation
                    JOINT Character1_RightHandThumb3
                    {
                      OFFSET -0.259195 -0.254063 0.227961
                      CHANNELS 6 Xposition Yposition Zposition Zrotation Xrotation Yrotation
                      JOINT Character1_RightHandThumb4
                      {
                        OFFSET -0.226668 -0.258211 0.206782
                        CHANNELS 6 Xposition Yposition Zposition Zrotation Xrotation Yrotation
                        End Site
                        {
                          OFFSET 0 0 0
                        }
                      }
                    }
                  }
                }
                JOINT Character1_RightHandIndex1
                {
                  OFFSET -1.48444 -0.35419 0.611987
                  CHANNELS 6 Xposition Yposition Zposition Zrotation Xrotation Yrotation
                  JOINT Character1_RightHandIndex2
                  {
                    OFFSET -0.504725 -0.451987 0.049391
                    CHANNELS 6 Xposition Yposition Zposition Zrotation Xrotation Yrotation
                    JOINT Character1_RightHandIndex3
                    {
                      OFFSET -0.296442 -0.265512 0.0299123
                      CHANNELS 6 Xposition Yposition Zposition Zrotation Xrotation Yrotation
                      JOINT Character1_RightHandIndex4
                      {
                        OFFSET -0.197651 -0.217279 0.0208599
                        CHANNELS 6 Xposition Yposition Zposition Zrotation Xrotation Yrotation
                        End Site
                        {
                          OFFSET 0 0 0
                        }
                      }
                    }
                  }
                }
                JOINT Character1_RightHandMiddle1
                {
                  OFFSET -1.48537 -0.317029 0.212679
                  CHANNELS 6 Xposition Yposition Zposition Zrotation Xrotation Yrotation
                  JOINT Character1_RightHandMiddle2
                  {
                    OFFSET -0.67206 -0.620938 0.0176346
                    CHANNELS 6 Xposition Yposition Zposition Zrotation Xrotation Yrotation
                    JOINT Character1_RightHandMiddle3
                    {
                      OFFSET -0.264032 -0.32112 0.00884263
                      CHANNELS 6 Xposition Yposition Zposition Zrotation Xrotation Yrotation
                      JOINT Character1_RightHandMiddle4
                      {
                        OFFSET -0.180854 -0.241264 0.00658385
                        CHANNELS 6 Xposition Yposition Zposition Zrotation Xrotation Yrotation
                        End Site
                        {
                          OFFSET 0 0 0
                        }
                      }
                    }
                  }
                }
                JOINT Character1_RightHandRing1
                {
                  OFFSET -1.48599 -0.345215 -0.172738
                  CHANNELS 6 Xposition Yposition Zposition Zrotation Xrotation Yrotation
                  JOINT Character1_RightHandRing2
                  {
                    OFFSET -0.522198 -0.611355 0.0123875
                    CHANNELS 6 Xposition Yposition Zposition Zrotation Xrotation Yrotation
                    JOINT Character1_RightHandRing3
                    {
                      OFFSET -0.273489 -0.359549 0.00739108
                      CHANNELS 6 Xposition Yposition Zposition Zrotation Xrotation Yrotation
                      JOINT Character1_RightHandRing4
                      {
                        OFFSET -0.175077 -0.230166 0.00473151
                        CHANNELS 6 Xposition Yposition Zposition Zrotation Xrotation Yrotation
                        End Site
                        {
                          OFFSET 0 0 0
                        }
                      }
                    }
                  }
                }
                JOINT Character1_RightHandPinky1
                {
                  OFFSET -1.45006 -0.450851 -0.482263
                  CHANNELS 6 Xposition Yposition Zposition Zrotation Xrotation Yrotation
                  JOINT Character1_RightHandPinky2
                  {
                    OFFSET -0.289757 -0.353119 -0.0298241
                    CHANNELS 6 Xposition Yposition Zposition Zrotation Xrotation Yrotation
                    JOINT Character1_RightHandPinky3
                    {
                      OFFSET -0.271225 -0.36969 -0.028032
                      CHANNELS 6 Xposition Yposition Zposition Zrotation Xrotation Yrotation
                      JOINT Character1_RightHandPinky4
                      {
                        OFFSET -0.192972 -0.263025 -0.0199445
                        CHANNELS 6 Xposition Yposition Zposition Zrotation Xrotation Yrotation
                        End Site
                        {
                          OFFSET 0 0 0
                        }
                      }
                    }
                  }
                }
              }
            }
          }
        }
        JOINT Character1_Neck
        {
          OFFSET 0 2.01813 0
          CHANNELS 6 Xposition Yposition Zposition Zrotation Xrotation Yrotation
          JOINT Character1_Head
          {
            OFFSET 0 3.0075 0
            CHANNELS 6 Xposition Yposition Zposition Zrotation Xrotation Yrotation
            End Site
            {
              OFFSET 0 0 0
            }
          }
        }
      }
    }
  }
}
MOTION
Frames:	2
Frame Time:	0.0166667
-0.0751289 14.2883 -0.2949 1.90023 0.457909 6.38093 1.33984 -0.94285 -9.61464e-008 -2.39427 11.3919 0.937508 1.03111 -5.48941 0.514162 3.50657 3.48024 -6.94094 0.584473 -7.37544 -1.61389 9.96907 -15.1805 -2.11199 0.308452 -0.815751 3.43202 -1.78328e-005 1.51786e-005 1.71528e-006 -1.33984 -0.94285 4.76976e-010 -2.20073 -28.6004 4.47891 -1.03111 -5.48942 0.514162 -2.13433 19.3236 -10.0908 -0.584472 -7.37543 -1.61389 2.28439 -7.01678 0.19988 -0.308452 -0.815752 3.43202 -4.82053e-015 -6.76448e-007 1.46604e-015 1.10422e-007 1.05262 1.0888e-008 -2.43557 -0.0897307 -7.64315 1.47913e-008 2.01813 -7.17134e-008 -5.68824e-006 -0.000307093 -2.49836 -6.72335e-009 2.01813 -8.27833e-008 0.000157769 -0.000296309 -2.49832 1.05263 2.25701 1.15352e-007 -0.571362 -0.0681526 -0.0630449 1.59242 -0.163556 -0.172858 -46.5485 10.2836 -4.5298 4.24537 -1.878 -0.325369 -4.14744 -7.81041 -13.8559 2.98616 -1.30582 0.326123 -0.470534 -5.79965 2.51306 0.707167 -0.296377 0.777354 1.5068e-005 2.90318e-006 -1.25769e-006 0.248522 -0.159515 0.331579 -2.17179e-005 -5.4537e-007 -1.27069e-006 0.259194 -0.254061 0.227961 6.9551e-005 4.95231e-006 3.07745e-007 0.226667 -0.258213 0.206783 -0.000121053 1.3368e-006 -5.73237e-006 1.48444 -0.354189 0.611987 1.5068e-005 2.90318e-006 -1.25769e-006 0.504726 -0.451988 0.0493913 -2.17179e-005 -5.4537e-007 -1.27069e-006 0.296442 -0.265512 0.0299126 6.9551e-005 4.95231e-006 3.07745e-007 0.197651 -0.217278 0.0208597 -0.000121053 1.3368e-006 -5.73237e-006 1.48537 -0.317032 0.21268 1.5068e-005 2.90318e-006 -1.25769e-006 0.67206 -0.620935 0.0176343 -2.17179e-005 -5.4537e-007 -1.27069e-006 0.264033 -0.32112 0.00884259 6.9551e-005 4.95231e-006 3.07745e-007 0.180854 -0.241265 0.00658402 -0.000121053 1.3368e-006 -5.73237e-006 1.48599 -0.345215 -0.172738 1.5068e-005 2.90318e-006 -1.25769e-006 0.522198 -0.611354 0.0123873 -2.17179e-005 -5.4537e-007 -1.27069e-006 0.273492 -0.359549 0.00739141 6.9551e-005 4.95231e-006 3.07745e-007 0.175075 -0.230163 0.00473122 -0.000121053 1.3368e-006 -5.73237e-006 1.45006 -0.450851 -0.482263 1.5068e-005 2.90318e-006 -1.25769e-006 0.289756 -0.353117 -0.0298237 -2.17179e-005 -5.4537e-007 -1.27069e-006 0.271225 -0.36969 -0.0280321 6.9551e-005 4.95231e-006 3.07745e-007 0.192972 -0.263027 -0.019944 -0.000121053 1.3368e-006 -5.73237e-006 -1.05263 2.25701 9.72187e-008 -4.45031e-008 -2.75283e-007 1.22901e-006 -1.59242 -0.163552 -0.172859 52.2242 11.5982 -3.0379 -4.24535 -1.87804 -0.325437 5.30277 -11.8361 7.7408 -2.98615 -1.30582 0.32613 -0.492652 3.67047 1.62373 -0.707169 -0.296376 0.777354 -6.49137e-005 -1.3573e-006 -1.24156e-005 -0.248522 -0.159517 0.33158 1.70644e-005 -7.09832e-007 -9.89419e-007 -0.259195 -0.254063 0.227961 -5.78975e-005 5.25388e-006 5.70713e-006 -0.226668 -0.258211 0.206783 -0.000157958 -2.47873e-005 -3.84713e-006 -1.48444 -0.354191 0.611988 -6.49137e-005 -1.3573e-006 -1.24156e-005 -0.504725 -0.451986 0.0493911 1.70644e-005 -7.09832e-007 -9.89419e-007 -0.296442 -0.265513 0.0299124 -5.78975e-005 5.25388e-006 5.70713e-006 -0.197651 -0.21728 0.0208599 -0.000157958 -2.47873e-005 -3.84713e-006 -1.48537 -0.31703 0.21268 -6.49137e-005 -1.3573e-006 -1.24156e-005 -0.672061 -0.620938 0.0176346 1.70644e-005 -7.09832e-007 -9.89419e-007 -0.264032 -0.32112 0.0088428 -5.78975e-005 5.25388e-006 5.70713e-006 -0.180854 -0.241264 0.00658401 -0.000157958 -2.47873e-005 -3.84713e-006 -1.48599 -0.345215 -0.172738 -6.49137e-005 -1.3573e-006 -1.24156e-005 -0.522198 -0.611355 0.0123873 1.70644e-005 -7.09832e-007 -9.89419e-007 -0.27349 -0.359549 0.00739115 -5.78975e-005 5.25388e-006 5.70713e-006 -0.175077 -0.230165 0.00473141 -0.000157958 -2.47873e-005 -3.84713e-006 -1.45007 -0.450851 -0.482263 -6.49137e-005 -1.3573e-006 -1.24156e-005 -0.289757 -0.353119 -0.0298241 1.70644e-005 -7.09832e-007 -9.89419e-007 -0.271225 -0.36969 -0.028032 -5.78975e-005 5.25388e-006 5.70713e-006 -0.192971 -0.263025 -0.0199443 -0.000157958 -2.47873e-005 -3.84713e-006 9.64707e-010 2.01813 1.90022e-007 1.87942e-006 1.87538e-007 5.10573 -9.71096e-009 3.0075 -2.66381e-007 1.27138e-006 -4.86463e-007 5.1065 
-0.0735446 14.2891 -0.294149 1.81599 0.478108 6.7178 1.33984 -0.942852 -9.61298e-008 -2.2725 13.5291 1.17178 1.03111 -5.48941 0.514162 3.58218 0.853657 -7.63873 0.584473 -7.37544 -1.61389 9.8478 -14.7006 -2.10292 0.308452 -0.815752 3.43202 -1.78315e-005 1.51806e-005 1.71907e-006 -1.33984 -0.942851 4.93557e-010 -2.23379 -28.3844 4.41071 -1.03111 -5.48941 0.514162 -2.30437 18.6188 -10.5022 -0.584472 -7.37543 -1.61389 2.38301 -8.52363 0.338875 -0.308452 -0.815753 3.43202 -4.44781e-015 -6.76374e-007 1.57785e-015 1.06412e-007 1.05263 1.08695e-008 -2.35778 -0.103738 -8.04274 1.50646e-008 2.01813 -7.14989e-008 -7.05731e-006 -0.000322615 -2.62328 -7.03733e-009 2.01813 -8.29071e-008 0.000165346 -0.000311317 -2.62323 1.05263 2.25701 1.15241e-007 -0.572078 -0.068246 -0.0632051 1.59242 -0.163554 -0.172858 -46.4105 10.2505 -4.5119 4.24537 -1.878 -0.325369 -4.27752 -7.75683 -14.3717 2.98616 -1.30581 0.326121 -0.481675 -5.97887 2.59017 0.707167 -0.296377 0.777354 1.21551e-005 2.88641e-006 -1.25415e-006 0.248522 -0.159515 0.331579 -2.14858e-005 -5.39404e-007 -1.30223e-006 0.259195 -0.254061 0.227961 6.7441e-005 4.97425e-006 3.2578e-007 0.226667 -0.258213 0.206783 -0.000134117 1.31604e-006 -5.70519e-006 1.48444 -0.35419 0.611987 1.21551e-005 2.88641e-006 -1.25415e-006 0.504725 -0.451988 0.0493913 -2.14858e-005 -5.39404e-007 -1.30223e-006 0.296442 -0.265512 0.0299128 6.7441e-005 4.97425e-006 3.2578e-007 0.197651 -0.217278 0.0208597 -0.000134117 1.31604e-006 -5.70519e-006 1.48537 -0.317032 0.21268 1.21551e-005 2.88641e-006 -1.25415e-006 0.672059 -0.620935 0.0176343 -2.14858e-005 -5.39404e-007 -1.30223e-006 0.264033 -0.32112 0.00884259 6.7441e-005 4.97425e-006 3.2578e-007 0.180854 -0.241265 0.0065839 -0.000134117 1.31604e-006 -5.70519e-006 1.48599 -0.345215 -0.172738 1.21551e-005 2.88641e-006 -1.25415e-006 0.522198 -0.611356 0.0123873 -2.14858e-005 -5.39404e-007 -1.30223e-006 0.273491 -0.359549 0.00739141 6.7441e-005 4.97425e-006 3.2578e-007 0.175076 -0.230164 0.00473122 -0.000134117 1.31604e-006 -5.70519e-006 1.45006 -0.450852 -0.482263 1.21551e-005 2.88641e-006 -1.25415e-006 0.289756 -0.353117 -0.0298237 -2.14858e-005 -5.39404e-007 -1.30223e-006 0.271225 -0.36969 -0.0280321 6.7441e-005 4.97425e-006 3.2578e-007 0.192972 -0.263027 -0.019944 -0.000134117 1.31604e-006 -5.70519e-006 -1.05263 2.25701 9.73559e-008 -4.45031e-008 -2.75299e-007 1.22901e-006 -1.59242 -0.163552 -0.172859 52.2777 11.6058 -3.224 -4.24535 -1.87804 -0.325438 5.278 -11.788 7.5307 -2.98615 -1.30582 0.326129 -0.504792 3.7554 1.66172 -0.707168 -0.296376 0.777354 -7.10695e-005 -1.21342e-006 -1.24697e-005 -0.248522 -0.159517 0.33158 2.7454e-005 -7.55556e-007 -9.58608e-007 -0.259195 -0.254062 0.227961 -7.46095e-005 5.3296e-006 5.70188e-006 -0.226668 -0.258211 0.206783 -0.000131924 -2.49547e-005 -3.80062e-006 -1.48445 -0.354191 0.611988 -7.10695e-005 -1.21342e-006 -1.24697e-005 -0.504725 -0.451987 0.0493911 2.7454e-005 -7.55556e-007 -9.58608e-007 -0.296442 -0.265512 0.0299124 -7.46095e-005 5.3296e-006 5.70188e-006 -0.197651 -0.21728 0.0208599 -0.000131924 -2.49547e-005 -3.80062e-006 -1.48537 -0.31703 0.21268 -7.10695e-005 -1.21342e-006 -1.24697e-005 -0.67206 -0.620937 0.0176346 2.7454e-005 -7.55556e-007 -9.58608e-007 -0.264032 -0.321119 0.00884279 -7.46095e-005 5.3296e-006 5.70188e-006 -0.180854 -0.241264 0.006584 -0.000131924 -2.49547e-005 -3.80062e-006 -1.48599 -0.345215 -0.172738 -7.10695e-005 -1.21342e-006 -1.24697e-005 -0.522198 -0.611355 0.0123873 2.7454e-005 -7.55556e-007 -9.58608e-007 -0.273489 -0.359548 0.00739115 -7.46095e-005 5.3296e-006 5.70188e-006 -0.175076 -0.230166 0.00473142 -0.000131924 -2.49547e-005 -3.80062e-006 -1.45007 -0.450852 -0.482263 -7.10695e-005 -1.21342e-006 -1.24697e-005 -0.289756 -0.353119 -0.0298241 2.7454e-005 -7.55556e-007 -9.58608e-007 -0.271226 -0.36969 -0.028032 -7.46095e-005 5.3296e-006 5.70188e-006 -0.192971 -0.263025 -0.0199443 -0.000131924 -2.49547e-005 -3.80062e-006 1.44474e-009 2.01813 1.90248e-007 1.87939e-006 1.76484e-007 5.36101 -9.79438e-009 3.0075 -2.67099e-007 1.2746e-006 -4.89284e-007 5.36183 
